{"title":"Shattered.2017.HDRip.XviD.AC3","magnet":"magnet:?xt=urn:btih:a76e973be238a8c18a47bd62a23337906266c462&dn=Shattered.2017.HDRip.XviD.AC3&tr=udp%3A%2F%2Ftracker.leechers-paradise.org%3A6969&tr=udp%3A%2F%2Fzer0day.ch%3A1337&tr=udp%3A%2F%2Fopen.demonii.com%3A1337&tr=udp%3A%2F%2Ftracker.coppersurfer.tk%3A6969&tr=udp%3A%2F%2Fexodus.desync.com%3A6969","uploader":"LifeLongg","categoryP":"video","categoryS":"movies","size":"1003621816","seeders":"15","leechers":"44","description":"******************************Screenshots:********************\r\n <a href=\"\nhttp://picserver4u.com/0871.html\" rel=\"nofollow\" target=\"_NEW\">\nhttp://picserver4u.com/0871.html</a>\r\n <a href=\"\nhttp://picserver4u.com/0872.html\" rel=\"nofollow\" target=\"_NEW\">\nhttp://picserver4u.com/0872.html</a>\r\n <a href=\"\nhttp://picserver4u.com/0873.html\" rel=\"nofollow\" target=\"_NEW\">\nhttp://picserver4u.com/0873.html</a>\r\n <a href=\"\nhttp://picserver4u.com/0874.html\" rel=\"nofollow\" target=\"_NEW\">\nhttp://picserver4u.com/0874.html</a>\r\n <a href=\"\nhttp://picserver4u.com/0875.html\" rel=\"nofollow\" target=\"_NEW\">\nhttp://picserver4u.com/0875.html</a>\r\n\r\n****************************************************************\r\n\r\nGeneral\r\nComplete name                            : Shattered.2017.HDRip.XviD.AC3.mp4\r\nFormat                                   : MPEG-4\r\nFormat profile                           : Base Media\r\nCodec ID                                 : isom (isom/iso2/avc1/mp41)\r\nFile size                                : 947 MiB\r\nDuration                                 : 1 h 30 min\r\nOverall bit rate                         : 1 460 kb/s\r\nWriting application                      : Lavf57.56.101\r\n\r\nVideo\r\nID                                       : 1\r\nFormat                                   : AVC\r\nFormat/Info                              : Advanced Video Codec\r\nFormat profile                           : <a href=\"/cdn-cgi/l/email-protection\" class=\"__cf_email__\" data-cfemail=\"632b0a040b232f50\">[email&#xA0;protected]</a>\r\nFormat settings                          : CABAC / 4 Ref Frames\r\nFormat settings, CABAC                   : Yes\r\nFormat settings, RefFrames               : 4 frames\r\nCodec ID                                 : avc1\r\nCodec ID/Info                            : Advanced Video Coding\r\nDuration                                 : 1 h 30 min\r\nBit rate                                 : 1 200 kb/s\r\nWidth                                    : 720 pixels\r\nHeight                                   : 384 pixels\r\nDisplay aspect ratio                     : 1.85:1\r\nFrame rate mode                          : Constant\r\nFrame rate                               : 23.976 (23976/1000) FPS\r\nColor space                              : YUV\r\nChroma subsampling                       : 4:2:0\r\nBit depth                                : 8 bits\r\nScan type                                : Progressive\r\nBits/(Pixel*Frame)                       : 0.181\r\nStream size                              : 778 MiB (82%)\r\n\r\nAudio\r\nID                                       : 2\r\nFormat                                   : AC-3\r\nFormat/Info                              : Audio Coding 3\r\nCodec ID                                 : ac-3\r\nDuration                                 : 1 h 30 min\r\nBit rate mode                            : Constant\r\nBit rate                                 : 256 kb/s\r\nChannel(s)                               : 6 channels\r\nChannel positions                        : Front: L C R, Side: L R, LFE\r\nSampling rate                            : 48.0 kHz\r\nFrame rate                               : 31.250 FPS (1536 SPF)\r\nBit depth                                : 16 bits\r\nCompression mode                         : Lossy\r\nStream size                              : 166 MiB (18%)\r\nService kind                             : Complete Main\r\nDefault                                  : Yes\r\nAlternate group                          : 1","last_updated":"2017-12-07T12:07:41.569Z","parsed":{"xt":"urn:btih:a76e973be238a8c18a47bd62a23337906266c462","dn":"Shattered.2017.HDRip.XviD.AC3","tr":["udp://exodus.desync.com:6969","udp://open.demonii.com:1337","udp://tracker.coppersurfer.tk:6969","udp://tracker.leechers-paradise.org:6969","udp://zer0day.ch:1337"],"infoHash":"a76e973be238a8c18a47bd62a23337906266c462","infoHashBuffer":{"type":"Buffer","data":[167,110,151,59,226,56,168,193,138,71,189,98,162,51,55,144,98,102,196,98]},"name":"Shattered.2017.HDRip.XviD.AC3","announce":["udp://exodus.desync.com:6969","udp://open.demonii.com:1337","udp://tracker.coppersurfer.tk:6969","udp://tracker.leechers-paradise.org:6969","udp://zer0day.ch:1337"],"urlList":[]}}